<svg width="32" height="31" viewBox="0 0 32 31" fill="none" xmlns="http://www.w3.org/2000/svg">
<path d="M15.8164 26.2969L7.78906 30.6328C7.32031 30.8672 6.79297 30.8086 6.32422 30.5156C5.91406 30.2227 5.67969 29.6367 5.73828 29.1094L7.32031 20.0273L0.816406 13.582C0.40625 13.1719 0.289062 12.6445 0.464844 12.1172C0.640625 11.6484 1.05078 11.2383 1.57812 11.1797L10.543 9.83203L14.5859 1.57031C14.8203 1.10156 15.2891 0.75 15.8164 0.75C16.4023 0.75 16.8711 1.10156 17.1055 1.57031L21.1484 9.83203L30.1133 11.1797C30.6406 11.2383 31.0508 11.6484 31.2266 12.1172C31.4023 12.6445 31.2852 13.1719 30.875 13.582L24.3711 20.0273L25.8945 29.1094C26.0117 29.6367 25.7773 30.2227 25.3672 30.5156C24.8984 30.8086 24.3125 30.8672 23.8438 30.6328L15.8164 26.2969ZM11.4219 10.2422C11.2461 10.5352 11.0117 10.7109 10.7188 10.7695L1.69531 12.1172C1.51953 12.1172 1.40234 12.2344 1.34375 12.4102C1.28516 12.5859 1.34375 12.7617 1.46094 12.8789L7.96484 19.3242C8.19922 19.5586 8.25781 19.8516 8.25781 20.1445L6.67578 29.2852C6.67578 29.4609 6.73438 29.6367 6.85156 29.7539C7.02734 29.8711 7.20312 29.8711 7.37891 29.7539L15.4062 25.4766C15.6992 25.3594 15.9922 25.3594 16.2852 25.4766L24.3125 29.7539C24.4883 29.8711 24.6641 29.8711 24.7812 29.7539C24.957 29.6367 25.0156 29.4609 25.0156 29.2852L23.4336 20.1445C23.375 19.8516 23.4922 19.5586 23.7266 19.3242L30.2305 12.8789C30.3477 12.7617 30.4062 12.5859 30.3477 12.4102C30.2891 12.2344 30.1719 12.1172 29.9961 12.1172L20.9727 10.7695C20.6797 10.7109 20.4453 10.5352 20.2695 10.2422L16.2852 1.98047C16.168 1.80469 15.9922 1.6875 15.8164 1.6875C15.6406 1.6875 15.5234 1.80469 15.4062 1.98047L11.4219 10.2422ZM0.816406 13.582L1.46094 12.8789L0.816406 13.582Z" fill="#DCAF0F"/>
</svg>
