<svg width="14" height="15" viewBox="0 0 14 15" fill="none" xmlns="http://www.w3.org/2000/svg">
<path d="M8.5 1.5C8.21875 1.5 8 1.28125 8 1C8 0.75 8.21875 0.5 8.5 0.5H13.5C13.75 0.5 14 0.75 14 1V6C14 6.28125 13.75 6.5 13.5 6.5C13.2188 6.5 13 6.28125 13 6V2.21875L5.84375 9.375C5.65625 9.5625 5.3125 9.5625 5.125 9.375C4.9375 9.1875 4.9375 8.84375 5.125 8.65625L12.2812 1.5H8.5ZM0 3C0 2.1875 0.65625 1.5 1.5 1.5H5.5C5.75 1.5 6 1.75 6 2C6 2.28125 5.75 2.5 5.5 2.5H1.5C1.21875 2.5 1 2.75 1 3V13C1 13.2812 1.21875 13.5 1.5 13.5H11.5C11.75 13.5 12 13.2812 12 13V9C12 8.75 12.2188 8.5 12.5 8.5C12.75 8.5 13 8.75 13 9V13C13 13.8438 12.3125 14.5 11.5 14.5H1.5C0.65625 14.5 0 13.8438 0 13V3Z" fill="white"/>
</svg>
