<svg width="51" height="50" viewBox="0 0 51 50" fill="none" xmlns="http://www.w3.org/2000/svg">
<path d="M22.6986 37.0117C22.7963 37.3047 22.7963 37.5977 22.5033 37.8906L12.3471 47.9492C11.0775 49.3164 9.22206 50 7.46425 50C5.70643 50 3.85096 49.4141 2.48378 48.0469C-0.250598 45.3125 -0.152942 40.625 2.67909 37.8906L17.1322 23.3398C17.4252 23.0469 17.9135 23.0469 18.2064 23.3398V23.4375C18.5971 23.7305 18.5971 24.2188 18.2064 24.5117L3.558 39.1602C1.40956 41.3086 1.40956 44.8242 3.65565 46.9727C5.90175 49.0234 9.31971 48.8281 11.4682 46.6797L21.4291 36.7188C21.8197 36.4258 22.4057 36.5234 22.6986 37.0117ZM22.2103 7.51953C22.2103 7.42188 22.2103 7.42188 22.2103 7.42188C21.9174 7.12891 21.9174 6.83594 22.1127 6.54297C24.2611 3.61328 27.3861 1.36719 30.9994 0.488281C32.3666 0.195312 33.6361 0 34.808 0C36.0775 0.0976562 37.3471 0.195312 38.5189 0.488281C39.6908 0.78125 40.0814 2.24609 39.2025 3.125L31.683 10.5469V18.75H39.8861L47.4057 11.3281C47.6986 11.0352 48.0892 10.8398 48.4799 10.8398C49.1635 10.8398 49.8471 11.3281 50.0424 12.0117C50.6283 14.3555 50.6283 16.8945 50.0424 19.4336C49.2611 22.7539 47.308 25.6836 44.6713 27.832C44.3783 28.0273 43.89 28.0273 43.6947 27.7344C43.3041 27.4414 43.4017 26.8555 43.6947 26.5625C46.0385 24.707 47.7963 22.0703 48.4799 19.1406C49.0658 16.7969 49.0658 14.5508 48.4799 12.4023L40.5697 20.3125H30.1205V9.96094L38.0307 2.05078C35.4916 1.36719 33.0502 1.66016 31.39 2.05078C28.1674 2.83203 25.3353 4.78516 23.3822 7.42188C23.0892 7.91016 22.5033 7.91016 22.2103 7.51953ZM6.683 42.1875C6.683 41.4062 7.36659 40.625 8.2455 40.625C9.1244 40.625 9.808 41.4062 9.808 42.1875C9.808 43.0664 9.1244 43.75 8.2455 43.75C7.36659 43.75 6.683 43.0664 6.683 42.1875ZM38.1283 26.5625L49.2611 37.6953C50.9213 39.3555 50.9213 42.0898 49.2611 43.75L44.183 48.8281C43.4017 49.6094 42.2299 50 41.1557 50C40.0814 50 38.9096 49.6094 38.1283 48.7305L26.9955 37.5977C24.1635 34.668 23.9682 30.1758 26.5072 27.0508L18.89 19.5312H10.3939C10.101 19.5312 9.90565 19.3359 9.71034 19.1406L0.628308 7.32422C0.432996 7.03125 0.432996 6.64062 0.725965 6.34766L6.78065 0.390625C7.07362 0.0976562 7.46425 0.0976562 7.75722 0.292969L19.6713 9.27734C19.8666 9.47266 20.0619 9.66797 20.0619 9.86328V18.457L27.5814 26.0742C30.7064 23.5352 35.1986 23.7305 38.1283 26.5625ZM18.4994 17.9688V10.2539L7.36659 1.85547L2.28846 6.93359L10.6869 17.9688H18.4994ZM48.0892 42.6758C49.1635 41.6016 49.1635 39.8438 48.0892 38.7695L36.9564 27.6367C34.515 25.1953 30.5111 25.1953 28.0697 27.6367C25.6283 30.0781 25.6283 34.082 28.0697 36.5234L39.2025 47.6562C40.2767 48.7305 42.0346 48.7305 43.1088 47.6562L48.0892 42.6758Z" fill="#55C899"/>
</svg>
