<svg width="59" height="50" viewBox="0 0 59 50" fill="none" xmlns="http://www.w3.org/2000/svg">
<path d="M57.9627 0.267536C58.1863 0.714569 58.1863 1.27336 57.851 1.60864L37.2875 19.3782C36.9522 19.7135 36.3934 19.7135 36.0581 19.3782L22.3118 5.63194L2.3071 21.2781C1.97182 21.5016 1.41303 21.5016 1.07776 21.0546C0.742481 20.7193 0.85424 20.1605 1.30127 19.8252L21.8648 3.73204C22.2001 3.50853 22.6471 3.50853 22.9824 3.8438L36.7287 17.5901L56.6217 0.155777C57.0687 -0.0677393 57.6275 -0.0677393 57.9627 0.267536ZM11.583 35.6949V46.4237C11.583 48.4354 10.0184 50 8.00677 50C6.10688 50 4.43051 48.4354 4.43051 46.4237V35.6949C4.43051 33.795 6.10688 32.1187 8.00677 32.1187C10.0184 32.1187 11.583 33.795 11.583 35.6949ZM9.79491 46.4237V35.6949C9.79491 34.8009 9.0126 33.9068 8.00677 33.9068C7.11271 33.9068 6.21864 34.8009 6.21864 35.6949V46.4237C6.21864 47.4296 7.11271 48.2119 8.00677 48.2119C9.0126 48.2119 9.79491 47.4296 9.79491 46.4237ZM18.7356 24.9661C18.7356 23.0662 20.4119 21.3899 22.3118 21.3899C24.3235 21.3899 25.8881 23.0662 25.8881 24.9661V46.4237C25.8881 48.4354 24.3235 50 22.3118 50C20.4119 50 18.7356 48.4354 18.7356 46.4237V24.9661ZM20.5237 24.9661V46.4237C20.5237 47.4296 21.4178 48.2119 22.3118 48.2119C23.3177 48.2119 24.1 47.4296 24.1 46.4237V24.9661C24.1 24.0721 23.3177 23.178 22.3118 23.178C21.4178 23.178 20.5237 24.0721 20.5237 24.9661ZM40.3049 32.1187V46.4237C40.3049 48.4354 38.6286 50 36.7287 50C34.717 50 33.1524 48.4354 33.1524 46.4237V32.1187C33.1524 30.2188 34.717 28.5424 36.7287 28.5424C38.6286 28.5424 40.3049 30.2188 40.3049 32.1187ZM38.5168 46.4237V32.1187C38.5168 31.2246 37.6227 30.3305 36.7287 30.3305C35.7228 30.3305 34.9405 31.2246 34.9405 32.1187V46.4237C34.9405 47.4296 35.7228 48.2119 36.7287 48.2119C37.6227 48.2119 38.5168 47.4296 38.5168 46.4237ZM47.4575 24.9661C47.4575 23.0662 49.0221 21.3899 51.0337 21.3899C52.9336 21.3899 54.61 23.0662 54.61 24.9661V46.4237C54.61 48.4354 52.9336 50 51.0337 50C49.0221 50 47.4575 48.4354 47.4575 46.4237V24.9661ZM49.2456 24.9661V46.4237C49.2456 47.4296 50.0279 48.2119 51.0337 48.2119C51.9278 48.2119 52.8219 47.4296 52.8219 46.4237V24.9661C52.8219 24.0721 51.9278 23.178 51.0337 23.178C50.0279 23.178 49.2456 24.0721 49.2456 24.9661Z" fill="#55C899"/>
</svg>
