<svg width="39" height="50" viewBox="0 0 39 50" fill="none" xmlns="http://www.w3.org/2000/svg">
<path d="M19.668 9.375C18.7891 9.375 18.1055 8.69141 18.1055 7.8125C18.1055 7.03125 18.7891 6.25 19.668 6.25C20.4492 6.25 21.2305 7.03125 21.2305 7.8125C21.2305 8.69141 20.4492 9.375 19.668 9.375ZM10.293 15.625C8.53516 15.625 7.16797 14.2578 7.16797 12.5V11.1328C7.16797 8.49609 9.31641 6.25 11.9531 6.25C12.7344 2.73438 15.8594 0 19.668 0C23.3789 0 26.5039 2.73438 27.2852 6.25C29.9219 6.25 32.168 8.49609 32.168 11.1328V12.5C32.168 14.2578 30.7031 15.625 29.043 15.625H10.293ZM8.73047 11.1328V12.5C8.73047 13.3789 9.41406 14.0625 10.293 14.0625H29.043C29.8242 14.0625 30.6055 13.3789 30.6055 12.5V11.1328C30.6055 9.375 29.043 7.8125 27.2852 7.8125H26.0156L25.7227 6.64062C25.0391 3.22266 21.5234 0.878906 18.0078 1.85547C15.5664 2.44141 13.9062 4.58984 13.418 6.93359L13.2227 7.8125H11.9531C10.1953 7.8125 8.73047 9.375 8.73047 11.1328ZM35.5859 9.76562C37.2461 10.5469 38.418 12.207 38.418 14.0625V45.3125C38.418 47.9492 36.2695 50 33.7305 50H5.60547C2.96875 50 0.917969 47.9492 0.917969 45.3125V14.0625C0.917969 12.207 1.99219 10.5469 3.65234 9.86328C4.04297 9.66797 4.53125 9.86328 4.72656 10.2539C4.92188 10.6445 4.72656 11.0352 4.33594 11.2305C3.16406 11.7188 2.48047 12.8906 2.48047 14.0625V45.3125C2.48047 47.0703 3.84766 48.4375 5.60547 48.4375H33.7305C35.3906 48.4375 36.8555 47.0703 36.8555 45.3125V14.0625C36.8555 12.8906 36.0742 11.7188 34.9023 11.2305C34.5117 11.0352 34.3164 10.6445 34.5117 10.2539C34.707 9.86328 35.1953 9.66797 35.5859 9.76562ZM10.293 20.3125C11.0742 20.3125 11.8555 21.0938 11.8555 21.875C11.8555 22.7539 11.0742 23.4375 10.293 23.4375C9.41406 23.4375 8.73047 22.7539 8.73047 21.875C8.73047 21.0938 9.41406 20.3125 10.293 20.3125ZM10.293 29.6875C11.0742 29.6875 11.8555 30.4688 11.8555 31.25C11.8555 32.1289 11.0742 32.8125 10.293 32.8125C9.41406 32.8125 8.73047 32.1289 8.73047 31.25C8.73047 30.4688 9.41406 29.6875 10.293 29.6875ZM10.293 39.0625C11.0742 39.0625 11.8555 39.8438 11.8555 40.625C11.8555 41.5039 11.0742 42.1875 10.293 42.1875C9.41406 42.1875 8.73047 41.5039 8.73047 40.625C8.73047 39.8438 9.41406 39.0625 10.293 39.0625ZM31.3867 39.8438C31.7773 39.8438 32.168 40.2344 32.168 40.625C32.168 41.1133 31.7773 41.4062 31.3867 41.4062H17.3242C16.8359 41.4062 16.543 41.1133 16.543 40.625C16.543 40.2344 16.8359 39.8438 17.3242 39.8438H31.3867ZM31.3867 21.0938C31.7773 21.0938 32.168 21.4844 32.168 21.875C32.168 22.3633 31.7773 22.6562 31.3867 22.6562H17.3242C16.8359 22.6562 16.543 22.3633 16.543 21.875C16.543 21.4844 16.8359 21.0938 17.3242 21.0938H31.3867ZM31.3867 30.4688C31.7773 30.4688 32.168 30.8594 32.168 31.25C32.168 31.7383 31.7773 32.0312 31.3867 32.0312H17.3242C16.8359 32.0312 16.543 31.7383 16.543 31.25C16.543 30.8594 16.8359 30.4688 17.3242 30.4688H31.3867Z" fill="#55C899"/>
</svg>
