<svg width="63" height="50" viewBox="0 0 63 50" fill="none" xmlns="http://www.w3.org/2000/svg">
<path d="M20.4256 23.9258C21.0115 23.9258 21.4998 24.4141 21.4998 25C21.4998 25.6836 21.0115 26.1719 20.4256 26.1719C19.742 26.1719 19.2537 25.6836 19.2537 25C19.2537 24.4141 19.742 23.9258 20.4256 23.9258ZM22.3787 7.8125C24.9178 7.8125 27.0662 9.96094 27.0662 12.5C27.0662 14.2578 25.992 15.8203 24.4295 16.6016L21.2068 18.2617V20.3125C21.2068 20.8008 20.8162 21.0938 20.4256 21.0938C19.9373 21.0938 19.6443 20.8008 19.6443 20.3125V17.7734C19.6443 17.4805 19.742 17.2852 20.035 17.0898L23.7459 15.2344C24.8201 14.6484 25.5037 13.6719 25.5037 12.5C25.5037 10.7422 24.0389 9.375 22.3787 9.375H17.9842C16.5193 9.375 15.3475 10.6445 15.3475 12.1094C15.3475 12.5 14.9568 12.8906 14.5662 12.8906C14.0779 12.8906 13.785 12.5 13.785 12.1094C13.785 9.76562 15.6404 7.8125 17.9842 7.8125H22.3787ZM40.7381 17.1875C40.7381 26.7578 31.5584 34.375 20.4256 34.375C16.617 34.375 13.199 33.5938 10.1717 32.0312C7.73028 33.3008 4.60528 34.375 0.796687 34.375C0.503718 34.375 0.21075 34.2773 0.113093 33.9844C0.0154371 33.6914 0.0154371 33.3984 0.308406 33.2031C0.308406 33.1055 2.5545 30.7617 4.117 27.5391C1.57794 24.6094 0.113093 21.0938 0.113093 17.1875C0.113093 7.71484 9.19513 0 20.4256 0C31.5584 0 40.7381 7.71484 40.7381 17.1875ZM20.4256 32.8125C30.6795 32.8125 39.1756 25.8789 39.1756 17.1875C39.1756 8.59375 30.6795 1.5625 20.4256 1.5625C10.074 1.5625 1.67559 8.59375 1.67559 17.1875C1.67559 20.6055 2.94512 23.7305 5.28887 26.4648L5.97247 27.2461L5.48419 28.2227C4.60528 30.0781 3.43341 31.6406 2.65216 32.7148C4.99591 32.5195 7.242 31.8359 9.48809 30.6641L10.1717 30.2734L10.8553 30.6641C13.785 32.1289 17.0076 32.8125 20.4256 32.8125ZM58.6092 43.3594C60.1717 46.4844 62.3201 48.7305 62.3201 48.8281C62.5154 49.0234 62.6131 49.3164 62.5154 49.6094C62.4178 49.9023 62.1248 50 61.8318 50C58.3162 50 55.2889 49.0234 52.8475 47.9492C50.2108 49.2188 47.0858 50 43.8631 50C35.9529 50 29.3123 45.6055 26.4803 39.3555C26.285 38.9648 26.5779 38.3789 26.9686 38.2812H27.0662C27.3592 38.1836 27.7498 38.3789 27.9451 38.7695C30.4842 44.4336 36.6365 48.4375 43.8631 48.4375C46.6951 48.4375 49.6248 47.7539 52.1639 46.4844L52.8475 46.1914L53.5311 46.4844C55.6795 47.5586 57.8279 48.1445 59.9764 48.4375C59.1951 47.3633 58.1209 45.8008 57.242 44.1406L56.7537 43.1641L57.4373 42.3828C59.7811 39.6484 61.0506 36.3281 61.0506 32.8125C61.0506 24.9023 54.5076 18.3594 46.0115 17.3828C45.6209 17.2852 45.4256 16.9922 45.3279 16.6992C45.3279 16.2109 45.7186 15.8203 46.2068 15.8203C55.4842 16.8945 62.6131 24.1211 62.6131 32.8125C62.6131 36.8164 61.0506 40.4297 58.6092 43.3594Z" fill="#55C899"/>
</svg>
