<svg width="66" height="51" viewBox="0 0 66 51" fill="none" xmlns="http://www.w3.org/2000/svg">
<path d="M21.1815 10.1562C24.1232 10.1562 26.4563 7.91016 26.4563 5.07812C26.4563 2.24609 24.1232 0 21.1815 0C18.3411 0 16.008 2.24609 16.008 5.07812C16.008 7.8125 18.3411 10.1562 21.1815 10.1562ZM21.1815 1.5625C23.2103 1.5625 24.8333 3.22266 24.8333 4.98047C24.8333 6.93359 23.2103 8.49609 21.1815 8.49609C19.2541 8.49609 17.6311 6.93359 17.6311 4.98047C17.6311 3.125 19.2541 1.5625 21.1815 1.5625ZM33.76 39.0625C33.3542 39.0625 32.9485 39.4531 32.9485 39.8438C32.9485 40.332 33.3542 40.625 33.76 40.625H54.8595C57.1926 40.625 58.9171 38.9648 58.9171 36.7188V17.2852L64.0905 21.6797C64.4963 21.9727 65.0035 21.9727 65.3078 21.6797C65.5107 21.3867 65.5107 20.8008 65.2064 20.6055L41.6723 0.292969C41.368 0 40.8608 0 40.5565 0.292969L28.8909 10.4492C28.4851 10.7422 28.4851 11.2305 28.7894 11.5234C29.0938 11.8164 29.4995 11.9141 29.8038 11.6211L41.0637 1.85547L57.2941 15.918V36.7188C57.2941 37.9883 56.2797 39.0625 54.8595 39.0625H33.76ZM10.6317 25.1953C10.1245 27.4414 10.7331 29.7852 12.4576 31.543L18.3411 37.793C18.9498 38.4766 19.3555 39.2578 19.5584 40.1367L21.3843 47.168C21.5872 48.1445 22.2973 49.0234 23.2103 49.5117C23.8189 49.9023 24.529 50 25.1376 50C25.5434 50 25.8477 50 26.152 49.9023C28.2822 49.4141 29.601 47.3633 28.9923 45.3125L26.8621 36.7188C26.5578 35.6445 26.0506 34.5703 25.2391 33.7891L20.9786 29.2969L21.993 25.6836C22.6016 27.0508 23.7175 28.125 25.1376 28.8086L27.3693 29.8828C28.3837 30.3711 29.3981 30.4688 30.4125 30.0781C31.4269 29.7852 32.2384 29.1016 32.6442 28.2227C33.5571 26.2695 32.7456 24.0234 30.8182 23.0469L28.7894 22.0703L27.9779 19.5312C26.4563 14.9414 22.0944 11.8164 17.2253 11.8164H17.1239C13.8778 11.8164 11.9504 12.5 9.00866 13.7695L7.68994 14.2578C5.35682 15.1367 3.53091 16.8945 2.41507 19.043L1.70499 20.3125C0.79203 22.168 1.60355 24.5117 3.53091 25.4883C4.44386 25.8789 5.5597 25.9766 6.47266 25.6836C7.48706 25.3906 8.29858 24.707 8.80578 23.7305L9.41442 22.4609C9.71874 21.9727 10.1245 21.582 10.6317 21.3867L11.7475 20.8984L10.6317 25.1953ZM19.457 36.7188L13.5735 30.4688C12.2547 29.1992 11.849 27.3438 12.2547 25.5859L13.7763 19.8242C13.8778 19.3359 13.472 18.8477 12.9648 18.8477C12.8634 18.8477 10.0231 19.9219 10.0231 19.9219C9.1101 20.3125 8.40002 20.8984 7.99426 21.7773L7.28418 23.0469C6.77698 24.2188 5.35682 24.6094 4.24099 24.1211C3.12514 23.5352 2.61795 22.168 3.22659 20.9961L3.83522 19.7266C4.74818 17.8711 6.37122 16.4062 8.29858 15.7227C12.5591 13.9648 14.0807 13.3789 17.2253 13.3789C21.3843 13.3789 25.1376 16.0156 26.4563 20.0195L27.3693 22.8516C27.4707 23.0469 27.5722 23.2422 27.7751 23.3398L30.1082 24.4141C31.224 25 31.7312 26.3672 31.1226 27.5391C30.6154 28.6133 29.1952 29.1016 28.0794 28.5156L25.7463 27.4414C24.4275 26.7578 23.5146 25.6836 23.1088 24.3164L22.5002 22.7539C22.2973 21.9727 21.1815 22.0703 20.9786 22.7539L19.2541 29.3945C19.1527 29.5898 19.2541 29.8828 19.457 30.0781L23.9203 34.8633C24.529 35.4492 25.0362 36.2305 25.2391 37.1094L27.3693 45.6055C27.6736 46.875 26.9635 48.1445 25.6448 48.4375C24.4275 48.7305 23.2103 47.9492 22.9059 46.7773L21.08 39.7461C20.7757 38.6719 20.2685 37.5977 19.457 36.7188ZM1.60355 43.6523C0.183388 45.1172 0.183388 47.4609 1.70499 48.9258C2.51651 49.707 3.42947 50.0977 4.44386 50.0977C5.45826 50.0977 6.37122 49.707 7.18274 49.0234L12.9648 43.3594C13.5735 42.7734 14.0807 41.9922 14.4864 41.1133L15.0951 39.5508C15.2979 39.1602 15.0951 38.7695 14.6893 38.5742C14.1821 38.3789 13.7763 38.5742 13.5735 38.9648L12.9648 40.5273C12.6605 41.2109 12.2547 41.7969 11.7475 42.2852L6.0669 47.8516C5.15394 48.7305 3.73378 48.7305 2.82082 47.8516C2.00931 46.9727 1.90787 45.6055 2.82082 44.7266L7.5885 39.9414C8.29858 39.2578 8.80578 38.4766 9.21154 37.6953L10.4288 34.5703C10.6317 34.1797 10.4288 33.7891 10.0231 33.5938C9.6173 33.4961 9.1101 33.5938 8.90722 33.9844L7.68994 37.1094C7.38562 37.793 6.97986 38.3789 6.47266 38.8672L1.60355 43.6523ZM50.8019 17.9688H44.3098C42.991 17.9688 41.8752 18.9453 41.8752 20.3125V26.5625C41.8752 27.832 42.991 28.9062 44.3098 28.9062H50.8019C52.2221 28.9062 53.2365 27.832 53.2365 26.5625V20.3125C53.2365 18.9453 52.2221 17.9688 50.8019 17.9688ZM43.4982 20.3125C43.4982 19.9219 43.904 19.5312 44.3098 19.5312H50.8019C51.3091 19.5312 51.6134 19.8242 51.6134 20.3125V26.5625C51.6134 26.9531 51.3091 27.3438 50.8019 27.3438H44.3098C43.904 27.3438 43.4982 26.9531 43.4982 26.5625V20.3125Z" fill="#55C899"/>
</svg>
