<svg width="14" height="13" viewBox="0 0 14 13" fill="none" xmlns="http://www.w3.org/2000/svg">
<path d="M13.8438 6.83409L8.65625 12.3341C8.5625 12.4591 8.40625 12.4903 8.28125 12.4903C8.15625 12.4903 8.03125 12.4591 7.9375 12.3653C7.71875 12.1778 7.71875 11.8653 7.90625 11.6778L12.2812 6.99034H0.5C0.21875 6.99034 0 6.77159 0 6.52159C0 6.27159 0.21875 5.99034 0.5 5.99034H12.2812L7.90625 1.33409C7.71875 1.14659 7.71875 0.834088 7.9375 0.646588C8.15625 0.459088 8.46875 0.459088 8.65625 0.677838L13.8438 6.17784C14.0312 6.36534 14.0312 6.64659 13.8438 6.83409Z" fill="#272321"/>
</svg>
