<svg width="48" height="50" viewBox="0 0 48 50" fill="none" xmlns="http://www.w3.org/2000/svg">
<path d="M44.1758 8.20312C45.9336 8.98438 47.1055 10.6445 47.1055 12.5C47.1055 37.5 28.6484 50 23.5703 50C18.6875 50 0.230469 37.6953 0.230469 12.5C0.230469 10.6445 1.30469 8.98438 3.0625 8.20312L21.8125 0.390625C22.3008 0.195312 23.082 0 23.668 0C24.1562 0 24.9375 0.195312 25.4258 0.390625L44.1758 8.20312ZM23.5703 48.4375C25.0352 48.4375 45.543 39.6484 45.543 12.5C45.543 11.2305 44.7617 10.1562 43.5898 9.66797L24.8398 1.85547C24.5469 1.75781 23.9609 1.5625 23.668 1.5625C23.2773 1.5625 22.6914 1.75781 22.3008 1.85547L3.64844 9.57031C2.47656 10.0586 1.79297 11.2305 1.79297 12.5C1.79297 36.5234 19.3711 48.4375 23.5703 48.4375ZM23.668 15.625C26.207 15.625 28.3555 17.7734 28.3555 20.3125C28.3555 22.6562 26.5977 24.6094 24.4492 25V32.8125C24.4492 33.3008 24.0586 33.5938 23.668 33.5938C23.1797 33.5938 22.8867 33.3008 22.8867 32.8125V25C20.6406 24.6094 18.9805 22.6562 18.9805 20.3125C18.9805 17.7734 21.0312 15.625 23.668 15.625ZM23.668 23.4375C25.3281 23.4375 26.793 22.0703 26.793 20.3125C26.793 18.6523 25.3281 17.1875 23.668 17.1875C21.9102 17.1875 20.543 18.6523 20.543 20.3125C20.543 22.0703 21.9102 23.4375 23.668 23.4375Z" fill="#55C899"/>
</svg>
