<svg width="64" height="50" viewBox="0 0 64 50" fill="none" xmlns="http://www.w3.org/2000/svg">
<path d="M58.5625 0C61.1016 0 63.25 2.14844 63.25 4.6875V45.3125C63.25 47.9492 61.1016 50 58.5625 50H30.4375C27.8008 50 25.75 47.9492 25.75 45.3125V4.6875C25.75 2.14844 27.8008 0 30.4375 0H58.5625ZM61.6875 45.3125V4.6875C61.6875 3.02734 60.2227 1.5625 58.5625 1.5625H30.4375C28.6797 1.5625 27.3125 3.02734 27.3125 4.6875V45.3125C27.3125 47.0703 28.6797 48.4375 30.4375 48.4375H58.5625C60.2227 48.4375 61.6875 47.0703 61.6875 45.3125ZM44.5 15.625C41.8633 15.625 39.8125 13.5742 39.8125 10.9375C39.8125 8.39844 41.8633 6.25 44.5 6.25C47.0391 6.25 49.1875 8.39844 49.1875 10.9375C49.1875 13.5742 47.0391 15.625 44.5 15.625ZM44.5 7.8125C42.7422 7.8125 41.375 9.27734 41.375 10.9375C41.375 12.6953 42.7422 14.0625 44.5 14.0625C46.1602 14.0625 47.625 12.6953 47.625 10.9375C47.625 9.27734 46.1602 7.8125 44.5 7.8125ZM44.5 21.875C50.457 21.875 55.4375 26.8555 55.4375 32.8125C55.4375 38.8672 50.457 43.75 44.5 43.75C38.4453 43.75 33.5625 38.8672 33.5625 32.8125C33.5625 26.8555 38.4453 21.875 44.5 21.875ZM44.5 42.1875C49.5781 42.1875 53.875 37.9883 53.875 32.8125C53.875 27.7344 49.5781 23.4375 44.5 23.4375C39.3242 23.4375 35.125 27.7344 35.125 32.8125C35.125 37.9883 39.3242 42.1875 44.5 42.1875ZM44.5 28.125C47.0391 28.125 49.1875 30.2734 49.1875 32.8125C49.1875 35.4492 47.0391 37.5 44.5 37.5C41.8633 37.5 39.8125 35.4492 39.8125 32.8125C39.8125 30.2734 41.8633 28.125 44.5 28.125ZM44.5 35.9375C46.1602 35.9375 47.625 34.5703 47.625 32.8125C47.625 31.1523 46.1602 29.6875 44.5 29.6875C42.7422 29.6875 41.375 31.1523 41.375 32.8125C41.375 34.5703 42.7422 35.9375 44.5 35.9375ZM17.9375 28.125C20.4766 28.125 22.625 30.2734 22.625 32.8125C22.625 35.4492 20.4766 37.5 17.9375 37.5C15.3008 37.5 13.25 35.4492 13.25 32.8125C13.25 30.2734 15.3008 28.125 17.9375 28.125ZM17.9375 35.9375C19.5977 35.9375 21.0625 34.5703 21.0625 32.8125C21.0625 31.1523 19.5977 29.6875 17.9375 29.6875C16.1797 29.6875 14.8125 31.1523 14.8125 32.8125C14.8125 34.5703 16.1797 35.9375 17.9375 35.9375ZM17.9375 6.25C20.4766 6.25 22.625 8.39844 22.625 10.9375C22.625 13.5742 20.4766 15.625 17.9375 15.625C15.3008 15.625 13.25 13.5742 13.25 10.9375C13.25 8.39844 15.3008 6.25 17.9375 6.25ZM17.9375 14.0625C19.5977 14.0625 21.0625 12.6953 21.0625 10.9375C21.0625 9.27734 19.5977 7.8125 17.9375 7.8125C16.1797 7.8125 14.8125 9.27734 14.8125 10.9375C14.8125 12.6953 16.1797 14.0625 17.9375 14.0625ZM21.8438 0C22.2344 0 22.625 0.390625 22.625 0.78125C22.625 1.26953 22.2344 1.5625 21.8438 1.5625H5.4375C3.67969 1.5625 2.3125 3.02734 2.3125 4.6875V45.3125C2.3125 47.0703 3.67969 48.4375 5.4375 48.4375H21.8438C22.2344 48.4375 22.625 48.8281 22.625 49.2188C22.625 49.707 22.2344 50 21.8438 50H5.4375C2.80078 50 0.75 47.9492 0.75 45.3125V4.6875C0.75 2.14844 2.80078 0 5.4375 0H21.8438ZM22.1367 22.8516C22.4297 22.9492 22.625 23.2422 22.625 23.5352C22.625 24.1211 22.0391 24.4141 21.4531 24.2188C20.3789 23.7305 19.207 23.4375 17.9375 23.4375C12.6641 23.4375 8.46484 27.7344 8.5625 33.0078C8.5625 37.6953 12.3711 41.7969 17.0586 42.1875C18.7188 42.3828 20.1836 42.0898 21.5508 41.5039C22.0391 41.2109 22.625 41.6016 22.625 42.1875C22.625 42.4805 22.4297 42.7734 22.1367 42.8711C20.8672 43.457 19.4023 43.75 17.8398 43.75C11.5898 43.75 6.51172 38.4766 7 32.0312C7.39062 27.2461 11.0039 23.1445 15.6914 22.168C18.0352 21.6797 20.1836 21.9727 22.1367 22.8516Z" fill="#55C899"/>
</svg>
