<svg width="63" height="50" viewBox="0 0 63 50" fill="none" xmlns="http://www.w3.org/2000/svg">
<path d="M61.8027 40.625C62.1934 40.625 62.584 41.0156 62.584 41.4062C62.584 41.8945 62.1934 42.1875 61.8027 42.1875H51.9395C52.7207 43.0664 53.209 44.1406 53.209 45.3125C53.209 47.9492 51.0605 50 48.5215 50C45.8848 50 43.834 47.9492 43.834 45.3125C43.834 44.1406 44.2246 43.0664 45.0059 42.1875H23.8145C24.5957 43.0664 25.084 44.1406 25.084 45.3125C25.084 47.9492 22.9355 50 20.3965 50C17.7598 50 15.709 47.9492 15.709 45.3125C15.709 44.1406 16.0996 43.0664 16.8809 42.1875H11.8027C11.3145 42.1875 11.0215 41.8945 11.0215 41.4062V7.03125C11.0215 4.39453 9.55664 1.5625 6.33398 1.5625H0.865234C0.376953 1.5625 0.0839844 1.26953 0.0839844 0.78125C0.0839844 0.390625 0.376953 0 0.865234 0H6.33398C9.94727 0 12.584 2.92969 12.584 7.03125V40.625H61.8027ZM20.3965 48.4375C22.0566 48.4375 23.5215 47.0703 23.5215 45.3125C23.5215 43.6523 22.0566 42.1875 20.3965 42.1875C18.6387 42.1875 17.2715 43.6523 17.2715 45.3125C17.2715 47.0703 18.6387 48.4375 20.3965 48.4375ZM48.5215 48.4375C50.1816 48.4375 51.6465 47.0703 51.6465 45.3125C51.6465 43.6523 50.1816 42.1875 48.5215 42.1875C46.7637 42.1875 45.3965 43.6523 45.3965 45.3125C45.3965 47.0703 46.7637 48.4375 48.5215 48.4375ZM21.959 34.375C20.2012 34.375 18.834 33.0078 18.834 31.25V9.375C18.834 7.71484 20.2012 6.25 21.959 6.25H34.459C36.1191 6.25 37.584 7.71484 37.584 9.375V31.25C37.584 33.0078 36.1191 34.375 34.459 34.375H21.959ZM20.3965 9.375V31.25C20.3965 32.1289 21.0801 32.8125 21.959 32.8125H34.459C35.2402 32.8125 36.0215 32.1289 36.0215 31.25V9.375C36.0215 8.59375 35.2402 7.8125 34.459 7.8125H21.959C21.0801 7.8125 20.3965 8.59375 20.3965 9.375ZM43.834 34.375C42.0762 34.375 40.709 33.0078 40.709 31.25V25C40.709 23.3398 42.0762 21.875 43.834 21.875H56.334C57.9941 21.875 59.459 23.3398 59.459 25V31.25C59.459 33.0078 57.9941 34.375 56.334 34.375H43.834ZM42.2715 25V31.25C42.2715 32.1289 42.9551 32.8125 43.834 32.8125H56.334C57.1152 32.8125 57.8965 32.1289 57.8965 31.25V25C57.8965 24.2188 57.1152 23.4375 56.334 23.4375H43.834C42.9551 23.4375 42.2715 24.2188 42.2715 25ZM43.834 18.75C42.0762 18.75 40.709 17.3828 40.709 15.625V9.375C40.709 7.71484 42.0762 6.25 43.834 6.25H50.084C51.7441 6.25 53.209 7.71484 53.209 9.375V15.625C53.209 17.3828 51.7441 18.75 50.084 18.75H43.834ZM42.2715 9.375V15.625C42.2715 16.5039 42.9551 17.1875 43.834 17.1875H50.084C50.8652 17.1875 51.6465 16.5039 51.6465 15.625V9.375C51.6465 8.59375 50.8652 7.8125 50.084 7.8125H43.834C42.9551 7.8125 42.2715 8.59375 42.2715 9.375Z" fill="#55C899"/>
</svg>
