<svg width="57" height="50" viewBox="0 0 57 50" fill="none" xmlns="http://www.w3.org/2000/svg">
<path d="M45.6119 25C44.8307 25 44.1471 24.3164 44.1471 23.4375C44.1471 22.6562 44.6354 21.875 45.6119 21.875C46.4908 21.875 47.0768 22.6562 47.0768 23.4375C47.0768 24.3164 46.3932 25 45.6119 25ZM28.4244 17.1875C23.7369 17.1875 19.9283 13.3789 19.9283 8.59375C19.9283 3.90625 23.5416 0 28.4244 0C33.2096 0 36.9205 3.90625 36.9205 8.59375C36.9205 13.3789 33.1119 17.1875 28.4244 17.1875ZM28.5221 1.5625C24.6158 1.5625 21.4908 4.78516 21.4908 8.59375C21.4908 12.5 24.6158 15.625 28.5221 15.625C32.3307 15.625 35.5533 12.5 35.5533 8.59375C35.5533 4.78516 32.3307 1.5625 28.5221 1.5625ZM8.20957 25C7.33066 25 6.64707 24.3164 6.64707 23.4375C6.64707 22.6562 7.33066 21.875 8.20957 21.875C8.99082 21.875 9.67441 22.6562 9.67441 23.4375C9.67441 24.3164 8.99082 25 8.20957 25ZM13.2877 24.5117C12.9947 24.5117 12.7018 24.3164 12.5064 24.0234C12.4088 23.6328 12.6041 23.2422 12.9947 23.0469C18.3658 20.8984 23.5416 19.9219 28.5221 19.9219C32.4283 19.9219 36.6275 20.6055 41.0221 21.9727C41.4127 22.0703 41.608 22.5586 41.5104 22.9492C41.315 23.3398 40.9244 23.6328 40.5338 23.4375C36.3346 22.168 32.3307 21.4844 28.5221 21.4844C23.7369 21.4844 18.7564 22.4609 13.5807 24.5117C13.483 24.5117 13.3854 24.5117 13.2877 24.5117ZM53.4244 29.7852C53.4244 29.6875 51.6666 28.418 48.6393 26.8555C48.2486 26.6602 48.0533 26.1719 48.3463 25.7812C48.5416 25.3906 48.9322 25.293 49.3229 25.4883C52.5455 27.1484 54.3033 28.418 54.401 28.5156C56.7447 30.1758 57.3307 33.4961 55.5729 35.9375C53.9127 38.1836 50.4947 38.7695 48.151 37.207C48.151 37.1094 44.3424 34.7656 39.4596 32.9102V43.75C39.4596 44.2383 39.0689 44.5312 38.6783 44.5312C38.19 44.5312 37.8971 44.2383 37.8971 43.75V30.6641L38.8736 31.0547C44.6354 33.1055 49.0299 35.8398 49.0299 35.9375C50.69 37.0117 53.1314 36.6211 54.3033 35.0586C55.5729 33.3008 55.1822 30.957 53.4244 29.7852ZM8.79551 37.207C6.3541 38.8672 3.03379 38.2812 1.37363 35.9375C-0.38418 33.4961 0.201758 30.1758 2.54551 28.5156C2.54551 28.5156 3.61973 27.7344 5.57285 26.5625C5.96348 26.3672 6.45176 26.4648 6.64707 26.8555C6.84238 27.2461 6.74473 27.7344 6.3541 27.9297C4.7916 28.9062 3.71738 29.5898 3.52207 29.6875C1.76426 30.957 1.37363 33.3008 2.64316 34.9609C3.81504 36.7188 6.15879 37.1094 7.9166 35.8398C7.9166 35.8398 12.3111 33.1055 18.0729 31.0547L19.1471 30.6641V43.75C19.1471 44.2383 18.7564 44.5312 18.3658 44.5312C17.8775 44.5312 17.5846 44.2383 17.5846 43.75V32.9102C12.6041 34.7656 8.79551 37.1094 8.79551 37.207ZM31.6471 35.9375C31.6471 35.1562 32.3307 34.375 33.2096 34.375C33.9908 34.375 34.7721 35.1562 34.7721 35.9375C34.7721 36.8164 33.9908 37.5 33.2096 37.5C32.3307 37.5 31.6471 36.8164 31.6471 35.9375ZM22.2721 26.5625C22.2721 25.7812 22.9557 25 23.8346 25C24.6158 25 25.3971 25.7812 25.3971 26.5625C25.3971 27.4414 24.6158 28.125 23.8346 28.125C22.9557 28.125 22.2721 27.4414 22.2721 26.5625ZM55.8658 48.4375C56.2564 48.4375 56.6471 48.8281 56.6471 49.2188C56.6471 49.707 56.2564 50 55.8658 50H1.17832C0.690039 50 0.39707 49.707 0.39707 49.2188C0.39707 48.8281 0.690039 48.4375 1.17832 48.4375H55.8658Z" fill="#55C899"/>
</svg>
