<svg width="14" height="13" viewBox="0 0 14 13" fill="none" xmlns="http://www.w3.org/2000/svg">
<path d="M13.8594 6.83421L8.67188 12.3342C8.57812 12.4592 8.42188 12.4905 8.29688 12.4905C8.17188 12.4905 8.04688 12.4592 7.95312 12.3655C7.73438 12.178 7.73438 11.8655 7.92188 11.678L12.2969 6.99046H0.515625C0.234375 6.99046 0.015625 6.77171 0.015625 6.52171C0.015625 6.27171 0.234375 5.99046 0.515625 5.99046H12.2969L7.92188 1.33421C7.73438 1.14671 7.73438 0.83421 7.95312 0.64671C8.17188 0.45921 8.48438 0.45921 8.67188 0.67796L13.8594 6.17796C14.0469 6.36546 14.0469 6.64671 13.8594 6.83421Z" fill="#272321"/>
</svg>
