<svg width="51" height="50" viewBox="0 0 51 50" fill="none" xmlns="http://www.w3.org/2000/svg">
<path d="M25.5 18.75C20.3242 18.75 16.125 14.5508 16.125 9.375C16.125 4.19922 20.3242 0 25.5 0C30.6758 0 34.875 4.19922 34.875 9.375C34.875 14.5508 30.6758 18.75 25.5 18.75ZM25.5 1.5625C21.1055 1.5625 17.6875 5.07812 17.6875 9.375C17.6875 13.7695 21.1055 17.1875 25.5 17.1875C29.7969 17.1875 33.3125 13.7695 33.3125 9.375C33.3125 5.07812 29.7969 1.5625 25.5 1.5625ZM47.5703 18.75C49.1328 18.75 50.5 19.9219 50.5 21.4844V41.7969C50.5 43.2617 49.2305 44.4336 47.668 44.5312C42.9805 44.7266 33.2148 46.3867 26.8672 49.707C26.3789 49.9023 25.8906 50 25.5 50C25.0117 50 24.5234 49.9023 24.0352 49.707C17.6875 46.3867 7.92188 44.7266 3.23438 44.5312C1.67188 44.4336 0.5 43.2617 0.5 41.7969V21.4844C0.5 19.9219 1.76953 18.75 3.33203 18.75C3.42969 18.75 3.52734 18.75 3.52734 18.8477C8.80078 19.043 19.3477 20.4102 25.5 24.3164C31.5547 20.4102 42.1016 19.043 47.375 18.8477C47.375 18.8477 47.4727 18.75 47.5703 18.75ZM24.7188 48.2422V25.6836H24.6211C19.3477 22.2656 9.875 20.7031 3.42969 20.4102C2.94141 20.4102 2.64844 20.5078 2.35547 20.7031C2.16016 20.8984 2.0625 21.0938 2.0625 21.4844V41.7969C2.0625 42.3828 2.55078 42.8711 3.33203 42.9688C8.01953 43.1641 17.9805 44.8242 24.7188 48.2422ZM48.9375 41.7969V21.4844C48.9375 20.8984 48.2539 20.3125 47.4727 20.3125V20.4102C41.0273 20.7031 31.6523 22.2656 26.3789 25.6836H26.2812V48.2422C32.9219 44.8242 42.8828 43.1641 47.5703 42.9688C48.3516 42.8711 48.9375 42.3828 48.9375 41.7969Z" fill="#55C899"/>
</svg>
